<svg width="29" height="42" viewBox="0 0 29 42" fill="none" xmlns="http://www.w3.org/2000/svg">
<path d="M7.70312 0C3.45963 0 0 3.4114 0 7.59574C0 10.5449 1.76712 13.0404 4.26752 14.2979C1.76712 15.5553 0 18.0508 0 21C0 23.9492 1.76712 26.4447 4.26752 27.7021C1.76712 28.9596 0 31.4551 0 34.4043C0 38.5886 3.45963 42 7.70312 42C11.9466 42 15.4062 38.5886 15.4062 34.4043V27.7021V24.7141C16.6219 26.9888 18.9697 28.5957 21.75 28.5957C25.7433 28.5957 29 25.3845 29 21.4468C29 18.2103 26.7581 15.5746 23.7572 14.6993C26.7829 13.6739 29 10.9202 29 7.59574C29 3.4114 25.5404 0 21.2969 0H14.5H7.70312ZM7.70312 1.78723H13.5938V13.4043H7.70312C4.43925 13.4043 1.8125 10.8141 1.8125 7.59574C1.8125 4.37736 4.43925 1.78723 7.70312 1.78723ZM15.4062 1.78723H21.2969C24.5608 1.78723 27.1875 4.37736 27.1875 7.59574C27.1875 10.8141 24.5608 13.4043 21.2969 13.4043H15.4062V1.78723ZM7.70312 15.1915H13.5938V26.8085H7.70312C4.43925 26.8085 1.8125 24.2184 1.8125 21C1.8125 17.7816 4.43925 15.1915 7.70312 15.1915ZM15.4062 15.1915H18.4365C17.1361 15.8672 16.0915 16.8973 15.4062 18.1795V15.1915ZM21.75 16.0851C24.7638 16.0851 27.1875 18.475 27.1875 21.4468C27.1875 24.4186 24.7638 26.8085 21.75 26.8085C18.7362 26.8085 16.3125 24.4186 16.3125 21.4468C16.3125 18.475 18.7362 16.0851 21.75 16.0851ZM7.70312 28.5957H13.5938V34.4043C13.5938 37.6226 10.967 40.2128 7.70312 40.2128C4.43925 40.2128 1.8125 37.6226 1.8125 34.4043C1.8125 31.1859 4.43925 28.5957 7.70312 28.5957Z" fill="white"/>
</svg>
