<svg width="38" height="38" viewBox="0 0 38 38" fill="none" xmlns="http://www.w3.org/2000/svg">
<g clip-path="url(#clip0_3_19)">
<path fill-rule="evenodd" clip-rule="evenodd" d="M0 0H38V38H0V0ZM26.22 15.2711C24.8554 15.2711 24.3891 15.9813 24.3891 16.5673C24.3891 17.2065 24.7 17.6504 26.5309 18.6271C29.2427 19.9766 30.0891 21.2729 30.0891 23.1729C30.0891 26.014 27.9819 27.5411 25.1318 27.5411C23.6291 27.5411 22.3336 27.2214 21.5909 26.7776C21.47 26.7243 21.4527 26.6355 21.4527 26.4934V23.8831C21.4527 23.7056 21.5391 23.6523 21.66 23.7411C22.7482 24.4692 23.9919 24.7888 25.1318 24.7888C26.4964 24.7888 27.0664 24.2028 27.0664 23.4037C27.0664 22.7645 26.6691 22.1963 24.9245 21.2729C22.4718 20.0654 21.4527 18.8402 21.4527 16.7982C21.4527 14.5075 23.1973 12.6075 26.22 12.6075C27.7055 12.6075 28.7418 12.8384 29.3118 13.1047C29.45 13.1935 29.4845 13.3355 29.4845 13.4598V15.8924C29.4845 16.0345 29.3981 16.1233 29.2254 16.07C28.4654 15.5729 27.3427 15.2711 26.22 15.2711ZM11.3654 17.3841C11.7627 17.4196 12.0737 17.4196 12.7646 17.4196C14.7855 17.4196 16.6855 16.6916 16.6855 13.8683C16.6855 11.6132 15.3209 10.4766 13.0237 10.4766C12.3328 10.4766 11.6764 10.5122 11.3654 10.5299V17.3841ZM8.29095 7.95513C8.29095 7.83084 8.53284 7.74199 8.67093 7.74199C9.77645 7.68873 11.4173 7.65322 13.1273 7.65322C17.9118 7.65322 19.7772 10.3523 19.7772 13.7972C19.7772 18.3074 16.5991 20.243 12.6955 20.243C12.0391 20.243 11.8146 20.2074 11.3482 20.2074V27.0261C11.3482 27.1682 11.2964 27.2392 11.1409 27.2392H8.49819C8.36003 27.2392 8.2909 27.1859 8.2909 27.0261V7.95513H8.29095Z" fill="white"/>
</g>
<defs>
<clipPath id="clip0_3_19">
<rect width="38" height="38" fill="white"/>
</clipPath>
</defs>
</svg>
