<svg width="38" height="38" viewBox="0 0 38 38" fill="none" xmlns="http://www.w3.org/2000/svg">
<path d="M33.6617 20.295H27.6183L27.6183 17.2733H33.6617V20.295ZM33.6617 22.0217H27.6183L27.6183 25.0434H33.6617V22.0217ZM33.6617 7.77657H27.6183L27.6183 10.7983H33.6617V7.77657ZM33.6617 12.525H27.6183L27.6183 15.5466H33.6617V12.525ZM33.6617 26.7701H27.6183L27.6183 29.7918H33.6617V26.7701ZM37.8359 32.7271C37.6633 33.625 36.5841 33.6466 35.8632 33.6768H22.4382V37.5618H19.7576L0 34.1085V3.89585L19.8741 0.438171H22.4382V3.87861L35.4013 3.87858C36.1308 3.9088 36.9337 3.857 37.5683 4.29299C38.0129 4.93186 37.9698 5.7434 38 6.47725L37.9827 28.95C37.9611 30.2062 38.0993 31.4882 37.8359 32.7271ZM15.8294 25.9542C14.638 23.5369 13.425 21.1368 12.2379 18.7194C13.412 16.3668 14.5689 14.0056 15.7214 11.6443C14.7416 11.6918 13.7617 11.7523 12.7861 11.8213C12.0566 13.5955 11.2062 15.3222 10.6364 17.1568C10.1054 15.4258 9.40179 13.7595 8.7586 12.0717C7.80892 12.1235 6.85925 12.1796 5.90957 12.2357C6.91105 14.4459 7.97727 16.6258 8.94853 18.8489C7.80461 21.0073 6.73407 23.1958 5.62467 25.3672C6.57003 25.406 7.51539 25.4449 8.46075 25.4578C9.13415 23.7398 9.9716 22.0865 10.5587 20.3339C11.0853 22.216 11.9789 23.9556 12.7127 25.7557C13.753 25.829 14.789 25.8938 15.8294 25.9542ZM35.9412 5.92874H22.4382L22.4382 7.77657H25.8916V10.7983H22.4382V12.525H25.8916V15.5466H22.4382V17.2733H25.8916V20.295H22.4382V22.0217H25.8916V25.0434H22.4382V26.7701H25.8916V29.7918H22.4382V31.7881H35.9412V5.92874Z" fill="white"/>
</svg>
