<svg width="38" height="38" viewBox="0 0 38 38" fill="none" xmlns="http://www.w3.org/2000/svg">
<g clip-path="url(#clip0_3_29)">
<path d="M0 0V38H38V0H0ZM16.1454 27.2774L12.6321 20.0368L9.24231 27.2601H5.9385L10.8004 17.9977L6.09959 8.63164L9.52863 8.63165L12.8568 15.7512L16.157 8.61437H19.3758L14.6712 17.704L19.6537 27.2774H16.1454V27.2774ZM31.2087 26.5171C29.7572 27.2083 28.2365 27.5193 26.7849 27.5193C23.035 27.5366 20.3565 25.221 20.3565 20.5207C20.4786 15.7056 23.6869 13.0189 28.1846 13.3838V8.63165H31.2606V24.6335C31.2669 26.5419 31.4776 26.3583 31.2087 26.5171ZM28.1846 16.0969V24.6507C25.1486 25.4385 23.4699 23.5908 23.4843 20.3824C23.4958 17.092 25.6576 15.3843 28.1846 16.0969Z" fill="white"/>
</g>
<defs>
<clipPath id="clip0_3_29">
<rect width="38" height="38" fill="white"/>
</clipPath>
</defs>
</svg>
