<svg width="38" height="38" viewBox="0 0 38 38" fill="none" xmlns="http://www.w3.org/2000/svg">
<path d="M36.2838 3.89251L22.4367 3.89253V0.439392H19.8555L0 3.90116V34.1074L19.739 37.5606H22.4367V34.1204L35.3946 34.1204C36.1284 34.0859 36.9442 34.142 37.5744 33.6931C38.0794 32.9204 37.9499 31.9536 37.9931 31.0816V5.5673C38.0838 4.58315 37.2679 3.79323 36.2838 3.89251ZM14.3996 24.866C13.6787 25.2415 12.5996 24.8487 11.745 24.9092C11.1709 22.0517 10.5018 19.2115 9.98819 16.3411C9.48317 19.1295 8.82708 21.892 8.24868 24.6631C7.41992 24.62 6.58685 24.5682 5.75379 24.5121C5.03726 20.7136 4.19556 16.9411 3.52651 13.134C4.26462 13.0994 5.00704 13.0692 5.74515 13.0433C6.18974 15.7929 6.69477 18.5295 7.08324 21.2834C7.69185 18.4604 8.31342 15.6375 8.91772 12.8146C9.73784 12.7671 10.558 12.7326 11.3781 12.6894C11.9522 15.603 12.5392 18.5122 13.1608 21.4129C13.6485 18.4173 14.1881 15.4303 14.7104 12.439C15.5736 12.4088 16.4369 12.3613 17.2959 12.3095C16.3204 16.4921 15.4657 20.7093 14.3996 24.866ZM35.9387 32.0703H22.4367V29.3594H33.6594V27.6328H22.4367V25.4746H33.6594V23.7481H22.4367V21.5898H33.6594V19.8633H22.4367V17.7051H33.6594V15.9785H22.4367V13.8203H33.6594V12.0937H22.4367V9.93551H33.6594V8.20894H22.4367V5.92964H35.9387V32.0703V32.0703Z" fill="white"/>
</svg>
