<svg width="38" height="38" viewBox="0 0 38 38" fill="none" xmlns="http://www.w3.org/2000/svg">
<g clip-path="url(#clip0_3_23)">
<path d="M0 0V38H38V0H0ZM22.7644 27.0898H20.0087C19.8859 27.0898 19.8367 27.0007 19.7877 26.8863L18.213 21.8203H12.5796L11.0789 26.8289C11.0542 27.0006 10.9803 27.0898 10.8328 27.0898H8.32326C8.15115 27.0898 8.10216 27.0009 8.15115 26.8009C9.47981 22.4245 11.7183 15.1305 13.2927 10.1821C13.3666 9.89618 13.4406 9.62187 13.4895 8.62073C13.4895 8.50643 13.5634 8.46094 13.6373 8.46094H17.0325C17.1553 8.46094 17.1799 8.47541 17.2291 8.58971C19.0492 14.4533 21.0421 20.9153 22.9118 26.836C22.9611 27.0075 22.9118 27.0898 22.7644 27.0898ZM28.5 26.8497C28.5 26.9931 28.4511 27.0898 28.3061 27.0898H25.7924C25.6473 27.0898 25.6055 27.0214 25.6055 26.8212V13.4064C25.6055 13.2348 25.623 13.1367 25.7441 13.1367H28.3061C28.4511 13.1367 28.5 13.2063 28.5 13.4064V26.8497ZM27.0253 11.2899C26.0582 11.2899 25.4058 10.6034 25.4058 9.5164C25.4058 8.45819 26.1068 7.74317 27.0493 7.74317C28.0404 7.74317 28.6449 8.45819 28.6449 9.5164C28.6448 10.6034 27.992 11.2899 27.0253 11.2899Z" fill="white"/>
<path d="M15.3349 11.2812C14.9656 13.1367 13.9573 16.4023 13.2192 19.0742H17.5488C17.0567 17.1445 15.8512 13.2852 15.3595 11.2812H15.3349Z" fill="white"/>
</g>
<defs>
<clipPath id="clip0_3_23">
<rect width="38" height="38" fill="white"/>
</clipPath>
</defs>
</svg>
