<svg width="38" height="38" viewBox="0 0 38 38" fill="none" xmlns="http://www.w3.org/2000/svg">
<path d="M23.3572 0.000252988C23.2156 -0.00312035 23.074 0.0272414 22.9459 0.0913392C22.4031 0.361224 22.0559 0.759303 21.7424 1.10678C21.4323 1.45426 21.1997 1.76462 21.1997 1.76462C21.1896 1.77812 21.1794 1.79161 21.1727 1.80511C20.3164 3.0938 19.895 4.5613 19.8782 6.03892C19.8681 7.17581 20.0973 8.31945 20.5423 9.39561C21.6312 12.0101 23.819 14.0309 26.3912 14.9957H26.3945C26.5125 15.0429 26.617 15.0801 26.7013 15.1104C26.7148 15.1138 26.7283 15.1172 26.7418 15.1239C26.7586 15.1273 26.7957 15.1408 26.8598 15.1576C26.9575 15.1914 27.1227 15.2589 27.3654 15.3061C28.07 15.4478 28.7273 15.522 29.3443 15.5422C32.0749 15.6266 33.9661 14.574 35.1459 13.4236C35.7359 12.8468 36.1573 12.2496 36.4539 11.7638C36.754 11.2781 36.9832 10.8395 36.9866 10.8361H36.9899C37.2495 10.4414 37.145 9.91176 36.7573 9.64525C36.3663 9.37874 35.8336 9.47657 35.5606 9.86453C34.8931 10.8462 34.0638 11.4096 33.0053 11.6829C31.9468 11.9561 30.6455 11.9157 29.1521 11.5446C28.9498 11.494 28.7004 11.413 28.4745 11.3287C28.4745 11.3287 28.4711 11.3287 28.4678 11.3253C28.1947 11.2275 27.9149 11.1094 27.6419 10.9778L27.6385 10.9744L27.6317 10.9711C27.1227 10.718 26.6305 10.4144 26.1822 10.0636C24.9416 9.09874 23.9775 7.51991 23.5662 5.87024C23.1549 4.22057 23.2965 2.54054 24.0617 1.32269C24.2269 1.05955 24.237 0.728941 24.0921 0.455683C23.9471 0.182425 23.6673 0.0103739 23.3572 0.000252988ZM15.5598 1.72751C15.3609 1.72751 15.1688 1.79836 15.0171 1.92318C13.6349 3.04995 12.3202 4.80082 12.3202 4.80082C12.3101 4.81095 12.3033 4.82444 12.2966 4.83793C9.74127 8.55559 9.89971 13.4439 11.8448 17.2999C12.1651 17.9375 12.5292 18.5582 12.9371 19.1486C12.9405 19.1519 12.9404 19.1519 12.9404 19.1519C13.2607 19.6242 13.6484 20.2416 14.208 20.7577C14.39 20.9669 14.5788 21.1626 14.7676 21.3481C14.8114 21.3954 14.8586 21.4426 14.9024 21.4864C14.9058 21.4932 14.9092 21.4966 14.9125 21.4966C15.0912 21.672 15.2766 21.8474 15.4688 22.0195L15.4722 22.0228C15.4789 22.0296 15.489 22.0397 15.4957 22.0464L15.5092 22.0532C15.5193 22.0667 15.5328 22.0768 15.5463 22.0869C15.7486 22.2691 15.9542 22.4412 16.1666 22.6065C16.1767 22.6166 16.1835 22.6233 16.1936 22.6301C16.1936 22.6301 16.2408 22.6706 16.3385 22.7414C16.5543 22.9101 16.7734 23.072 16.9892 23.2272C17.0161 23.2474 17.0465 23.2677 17.0734 23.2812C17.0937 23.2947 17.1071 23.3048 17.124 23.3183H17.1274C17.2049 23.3723 17.2824 23.4229 17.3465 23.4667C17.3667 23.4802 17.4139 23.5139 17.4914 23.5645C17.66 23.6759 17.8252 23.7771 17.9971 23.8817C18.014 23.8918 18.0342 23.9019 18.051 23.912C18.051 23.912 18.078 23.9255 18.1084 23.939C18.1151 23.9458 18.1151 23.9424 18.1252 23.9491C18.2601 24.0301 18.3983 24.1111 18.5432 24.1853C18.5938 24.2156 18.6545 24.246 18.6713 24.2561C18.6814 24.2629 18.6916 24.2662 18.7017 24.273C18.7893 24.3169 18.8837 24.3675 18.9815 24.4214C19.0658 24.4653 19.0894 24.4687 19.0826 24.4687C19.2984 24.5732 19.504 24.6677 19.6962 24.7588C19.7096 24.7622 19.7231 24.7689 19.74 24.7757C19.7804 24.7925 19.8141 24.806 19.858 24.8263C20.0299 24.8971 20.2086 24.9781 20.3973 25.0489C20.4075 25.0523 20.4209 25.059 20.4311 25.0624C20.4681 25.0759 20.5322 25.0995 20.6299 25.1366C20.6299 25.1366 20.6333 25.1366 20.6333 25.14C20.7951 25.1974 20.9603 25.2513 21.1221 25.3053C21.2064 25.3357 21.2806 25.3593 21.3446 25.3829C21.3446 25.3829 21.3446 25.3829 21.348 25.3829C21.5267 25.4402 21.793 25.5516 22.1537 25.6123C22.1537 25.6123 22.1537 25.6089 22.1571 25.6123C23.519 25.8383 24.7764 25.9294 25.9361 25.9058C30.6792 25.8012 33.7537 23.7096 35.5572 21.6517C37.3574 19.5939 37.9642 17.5158 37.9642 17.5158C38.0855 17.1076 37.89 16.6757 37.5057 16.4936C37.1248 16.3114 36.6663 16.4362 36.4236 16.7871C34.1312 20.1404 29.6746 21.8643 24.8 20.579C24.5843 20.525 24.3752 20.4643 24.1696 20.3934C24.1561 20.39 24.1393 20.3833 24.1224 20.3799C24.0921 20.3732 24.0516 20.3597 23.9808 20.3361C23.9741 20.3327 23.9673 20.3293 23.964 20.3259C23.8055 20.2753 23.6572 20.2281 23.5224 20.1741C23.5224 20.1741 23.5224 20.1741 23.519 20.1741C23.4415 20.1438 23.374 20.1201 23.3167 20.0965C23.1448 20.0291 22.983 19.965 22.8448 19.9042C22.8347 19.8975 22.8279 19.8941 22.8178 19.8907C22.7436 19.8604 22.7099 19.8435 22.7571 19.8671C22.7369 19.857 22.7167 19.8503 22.6964 19.8401C22.5077 19.7558 22.3121 19.6647 22.1166 19.5669L22.1031 19.5635C22.1031 19.5601 22.0997 19.5601 22.0964 19.5568C21.9986 19.5062 21.9042 19.4589 21.8065 19.405C21.8031 19.405 21.7997 19.4016 21.793 19.4016C21.7323 19.3678 21.675 19.3375 21.6244 19.3105V19.3139C21.5132 19.2565 21.3986 19.1857 21.2637 19.1047C21.2536 19.1013 21.2469 19.098 21.2401 19.0946C21.1997 19.071 21.1862 19.0642 21.1794 19.0575H21.1761L21.1693 19.0541C21.0041 18.9529 20.8491 18.8584 20.7277 18.7741C20.7109 18.764 20.6906 18.7539 20.6738 18.7437C20.6873 18.7505 20.6502 18.7235 20.5625 18.6661C20.4715 18.6088 20.3771 18.5481 20.276 18.4772H20.2726C20.2692 18.4739 20.2659 18.4705 20.2591 18.4705C20.0703 18.3322 19.8748 18.1837 19.6759 18.0319L19.6591 18.015C19.6119 17.9779 19.5714 17.9476 19.5445 17.924C19.5377 17.9206 19.531 17.9138 19.5242 17.9071C17.3735 16.19 15.6812 13.8386 14.8856 11.2106V11.2072C14.0866 8.61969 14.9092 5.4418 16.3082 3.02296C16.4633 2.75645 16.4633 2.42584 16.3082 2.15596C16.1531 1.88945 15.8666 1.72751 15.5598 1.72751ZM6.0735 4.31841C5.86112 4.31841 5.65211 4.396 5.49367 4.54106C5.44648 4.58154 5.42288 4.6254 5.37568 4.66926C3.70024 6.22109 2.50687 8.11028 2.48327 8.15077C-0.988969 13.201 -0.527127 20.95 2.06525 26.1824C2.06525 26.1858 2.06525 26.1892 2.06525 26.1926C2.13268 26.3342 2.2001 26.4591 2.25404 26.5569C2.28101 26.6176 2.31135 26.675 2.34169 26.7323C2.40574 26.8774 2.45293 26.9381 2.45967 26.9482C2.50013 27.0258 2.54058 27.1034 2.57092 27.1608C2.57429 27.1675 2.58103 27.1776 2.58441 27.1844C2.66194 27.3092 2.73611 27.4475 2.82038 27.5858C2.82038 27.5892 2.82375 27.5926 2.82713 27.5959C2.86421 27.6567 2.9114 27.7444 2.98557 27.8523C3.07996 28.0075 3.16761 28.1458 3.23166 28.247C3.23503 28.2538 3.2384 28.2572 3.2384 28.2605C3.27211 28.3111 3.31256 28.3786 3.36313 28.4495C3.3665 28.4562 3.36987 28.4596 3.37324 28.463C3.37662 28.4697 3.37662 28.4731 3.38336 28.4832C3.50135 28.662 3.62608 28.8475 3.76429 29.0398C3.77778 29.0567 3.77441 29.05 3.78452 29.0668C3.79463 29.0803 3.79463 29.0803 3.80138 29.0904C3.80475 29.0938 3.81149 29.1039 3.81486 29.1107L3.81823 29.1141C3.82497 29.1242 3.85194 29.1579 3.85194 29.1579C3.85194 29.1613 3.85531 29.1647 3.85868 29.1647C3.98004 29.3333 4.10477 29.5054 4.23625 29.6741C4.28682 29.7415 4.33064 29.7989 4.35424 29.8292C4.36098 29.8394 4.37109 29.8495 4.37784 29.863C4.48908 29.9945 4.59696 30.1295 4.7082 30.2678C4.71157 30.2746 4.71495 30.2779 4.71832 30.2813C4.75203 30.3218 4.79585 30.3724 4.84305 30.4297C4.98801 30.6052 5.13633 30.7738 5.28803 30.9425C5.30152 30.956 5.315 30.9729 5.32849 30.9864L5.32175 30.9763C5.36557 31.0269 5.44311 31.1112 5.52064 31.1618L5.35883 31.0235C5.51727 31.1989 5.67908 31.371 5.8409 31.543C5.84427 31.5464 5.84764 31.5464 5.84764 31.5498C5.90495 31.6071 5.96226 31.6645 6.02294 31.7252C6.13755 31.8399 6.25891 31.9647 6.4005 32.0996C6.45444 32.1503 6.50838 32.1975 6.54546 32.238C6.54883 32.2413 6.54883 32.2413 6.5522 32.2413C6.70727 32.3898 6.87583 32.5483 7.05449 32.7069C7.07135 32.717 7.08146 32.7305 7.09495 32.7406C7.09495 32.744 7.09495 32.744 7.09495 32.744C7.14214 32.7845 7.16911 32.8081 7.16237 32.8013C7.17248 32.8081 7.17923 32.8182 7.18934 32.825C7.34778 32.9633 7.50622 33.0982 7.66467 33.2332C7.7422 33.2939 7.80962 33.3479 7.86693 33.3985C7.8703 33.3985 7.8703 33.3985 7.87367 33.3985C8.01526 33.5165 8.1501 33.6177 8.27821 33.7156C8.27821 33.719 8.28158 33.719 8.28158 33.7223C8.34563 33.7696 8.41305 33.8202 8.48722 33.8775C8.49059 33.8809 8.49396 33.8809 8.49733 33.8843C8.64903 33.999 8.80073 34.1069 8.94569 34.2115C8.98951 34.2452 9.04008 34.279 9.09402 34.3161C9.09064 34.3127 9.11087 34.3296 9.10413 34.3262C9.12773 34.3431 9.15132 34.3599 9.17155 34.3734C9.31314 34.4679 9.45135 34.5623 9.59631 34.6568C9.59631 34.6602 9.59968 34.6602 9.59968 34.6602C9.66373 34.7007 9.72104 34.7411 9.77835 34.7783C9.78172 34.7816 9.78509 34.785 9.79183 34.7884C10.0211 34.9368 10.2469 35.0751 10.4694 35.2101C10.4829 35.2202 10.4964 35.2269 10.5099 35.2337C10.5638 35.264 10.6144 35.291 10.6616 35.318C10.665 35.3214 10.665 35.3214 10.6683 35.3248C10.8402 35.4226 11.0122 35.5238 11.1942 35.6216L11.1774 35.6115C11.2987 35.679 11.4066 35.7296 11.4942 35.7735C11.6021 35.8342 11.7167 35.8983 11.8381 35.959C11.855 35.9691 11.8752 35.9792 11.8954 35.9894C11.9595 36.013 11.9595 36.0197 11.892 35.9792C11.9156 35.9961 11.9392 36.0062 11.9628 36.0163C11.9729 36.0231 12.01 36.04 12.0741 36.0737C12.0774 36.0737 12.0774 36.0737 12.0808 36.0737C12.2797 36.1749 12.4752 36.266 12.6775 36.3537C12.7247 36.3773 12.755 36.3908 12.7449 36.3841C12.7652 36.3942 12.782 36.4043 12.7989 36.4111C13.0247 36.5123 13.254 36.6067 13.4866 36.7012C13.4899 36.7012 13.4967 36.7046 13.5001 36.7046C13.5135 36.7079 13.581 36.7383 13.6484 36.7619C13.6619 36.7687 13.6754 36.772 13.6888 36.7754C13.6956 36.7788 13.6922 36.7788 13.6989 36.7821C13.8844 36.853 14.0698 36.9238 14.2552 36.9879C14.3057 37.0115 14.3496 37.025 14.3799 37.0385C14.6226 37.1195 14.8586 37.1971 15.1013 37.2713C15.1081 37.2747 15.1148 37.2781 15.1249 37.2814C15.1384 37.2848 15.2025 37.305 15.2733 37.3253C15.2766 37.3253 15.28 37.3287 15.2834 37.3287C15.3002 37.332 15.2969 37.332 15.3137 37.3388C15.5193 37.4029 15.7621 37.494 16.079 37.5547C16.0823 37.5547 16.0823 37.5547 16.0857 37.5547C17.751 37.8617 19.2984 38 20.7412 38C33.1132 38.0034 37.081 27.9434 37.081 27.9434C37.2327 27.542 37.0675 27.0899 36.6933 26.8808C36.3191 26.675 35.8471 26.7728 35.5876 27.1135C32.0647 31.7488 25.7473 32.6866 19.5849 31.2698C19.3995 31.2259 19.1804 31.1584 18.9275 31.0808C18.9242 31.0808 18.9174 31.0775 18.9141 31.0775C18.8702 31.064 18.823 31.0505 18.7994 31.0404C18.786 31.037 18.7725 31.0336 18.759 31.0302C18.5432 30.9628 18.3241 30.8885 18.105 30.8143C18.1016 30.8109 18.0949 30.8109 18.0881 30.8076C18.0746 30.8042 18.0612 30.8008 18.051 30.7941C18.0376 30.7907 18.0241 30.784 18.0072 30.7806C17.8387 30.7199 17.6566 30.6524 17.4678 30.5782L17.4375 30.5647C17.3633 30.5377 17.2993 30.5141 17.2723 30.5006C17.0701 30.4196 16.861 30.3319 16.6554 30.2408C16.6352 30.2307 16.6183 30.224 16.6015 30.2172C16.6048 30.2172 16.561 30.2003 16.5341 30.1902C16.3554 30.1059 16.1801 30.0215 15.998 29.9338C15.9846 29.9305 15.9744 29.9237 15.961 29.917C15.9508 29.9136 15.9205 29.9001 15.8598 29.8664C15.8531 29.863 15.8463 29.8596 15.8362 29.8562C15.7182 29.7989 15.5868 29.7314 15.4519 29.6572C15.4486 29.6538 15.4418 29.6504 15.4384 29.6471C15.3306 29.5931 15.2463 29.5526 15.1856 29.5155C15.1789 29.5155 15.1755 29.5121 15.1688 29.5088C15.0103 29.4244 14.8451 29.3266 14.6698 29.2288L14.7373 29.2692C14.6226 29.195 14.5417 29.1545 14.4945 29.1275L14.5215 29.141C14.3024 29.0095 14.0866 28.8779 13.881 28.7463C13.8776 28.743 13.8742 28.743 13.8742 28.7396C13.8338 28.716 13.7866 28.6856 13.7293 28.6451C13.7192 28.635 13.7057 28.6283 13.6956 28.6215C13.554 28.5304 13.409 28.4292 13.2573 28.328L13.2472 28.3213C13.2169 28.2976 13.1697 28.2639 13.1056 28.2167C12.9708 28.1222 12.8359 28.0244 12.6977 27.9198H12.691C12.6842 27.9131 12.6809 27.9097 12.6741 27.9029C12.6202 27.8591 12.5595 27.8152 12.4988 27.768C12.364 27.6634 12.2359 27.5656 12.1213 27.4711L12.1044 27.461C12.037 27.4037 11.9763 27.3531 11.9325 27.3159C11.9325 27.3159 11.9291 27.3159 11.9257 27.3126C11.7673 27.1844 11.6156 27.0494 11.4504 26.9077L11.5212 26.9786C11.383 26.8234 11.3189 26.8032 11.3527 26.8268L11.3999 26.8673C11.2347 26.7188 11.0661 26.5603 10.8942 26.3983L10.8841 26.3916C10.8571 26.3646 10.8133 26.3207 10.756 26.2668L10.7324 26.2432C10.6076 26.1217 10.493 26.007 10.3885 25.9024C10.3851 25.8991 10.3851 25.8991 10.3818 25.8957C10.3346 25.8484 10.2908 25.8012 10.2368 25.7472C10.0885 25.5988 9.94353 25.4402 9.79858 25.2783C9.79183 25.2716 9.78172 25.2614 9.77498 25.2513H9.77161C9.61991 25.086 9.47158 24.914 9.31988 24.7352C9.31988 24.7318 9.31988 24.7284 9.31651 24.7251C9.29291 24.6981 9.25246 24.6475 9.18841 24.5732C9.0839 24.445 8.9794 24.3101 8.86478 24.1718L8.86141 24.1684C8.82433 24.1178 8.78387 24.0638 8.76028 24.0335L8.7569 24.0301C8.6288 23.8614 8.50744 23.6961 8.38608 23.5274L8.38271 23.5241C6.75784 21.284 5.63526 17.6608 5.32175 14.1726C5.00486 10.6877 5.54761 7.34111 6.76121 5.69482C6.95673 5.43505 6.98707 5.08758 6.84211 4.79745C6.69716 4.50395 6.4005 4.32178 6.0735 4.31841ZM21.7795 4.87842C21.8267 5.35072 21.7761 5.82639 21.8907 6.28856C22.393 8.28908 23.5156 10.1783 25.1236 11.4299C25.6731 11.8549 26.2631 12.2227 26.8732 12.5229C26.8766 12.5263 26.88 12.5296 26.8834 12.5296C27.207 12.6848 27.5407 12.8265 27.8812 12.9513L27.8745 12.948C28.1374 13.0458 28.4341 13.147 28.7341 13.2212C29.5128 13.4135 30.2646 13.5147 30.9927 13.5552C30.4803 13.6598 30.0522 13.8352 29.3982 13.815C28.8858 13.7981 28.3194 13.734 27.7025 13.6126H27.6992C27.6587 13.6058 27.5542 13.5653 27.3755 13.5113C27.3553 13.5046 27.3149 13.4911 27.271 13.4776C27.1665 13.4405 27.0822 13.4135 27.0182 13.3865C27.0115 13.3832 27.0081 13.3832 27.0013 13.3798C24.8708 12.5802 23.0268 10.8732 22.1368 8.73102C21.7761 7.86064 21.5941 6.94978 21.6042 6.05579C21.6076 5.65433 21.702 5.26638 21.7795 4.87842ZM13.0079 7.31412C12.7887 8.77487 12.7921 10.2727 13.2337 11.7132C14.1439 14.7157 16.0452 17.337 18.4488 19.2565C18.4994 19.3004 18.55 19.3409 18.5837 19.3712C18.5904 19.3746 18.5972 19.3813 18.6039 19.3847C18.8197 19.5534 19.0455 19.7254 19.2815 19.8907C19.2849 19.8941 19.2916 19.8975 19.2984 19.9009C19.4062 19.9751 19.5141 20.0459 19.6321 20.1201C19.6321 20.1235 19.6321 20.1235 19.6321 20.1235C19.6388 20.1269 19.6995 20.1741 19.8141 20.2416C19.976 20.3462 20.1378 20.444 20.2726 20.5283C20.2794 20.5317 20.2827 20.5351 20.2861 20.5385C20.3468 20.5722 20.3872 20.5958 20.4041 20.6026C20.5254 20.6768 20.6603 20.7577 20.8221 20.8421C20.8221 20.8421 20.8221 20.8421 20.8221 20.8455C20.8862 20.8758 20.9502 20.9096 21.0143 20.9399C21.1188 20.9939 21.2199 21.0479 21.321 21.1019C21.3278 21.1052 21.3345 21.1086 21.3446 21.112C21.5334 21.2064 21.7357 21.3009 21.9447 21.392C22.0559 21.4493 22.1031 21.4662 22.1335 21.4763C22.329 21.564 22.5144 21.6349 22.683 21.7023C22.7672 21.7361 22.8481 21.7664 22.9122 21.7934L22.9088 21.7901C23.0875 21.8575 23.2628 21.9149 23.428 21.9689C23.4785 21.9891 23.5493 22.0093 23.6269 22.033C23.8662 22.1139 24.1123 22.1881 24.3618 22.2522C27.598 23.1057 30.6826 22.6672 33.2885 21.4426C31.704 22.8628 29.4049 24.1009 25.899 24.1785C24.8539 24.2022 23.7044 24.1212 22.4369 23.9087C22.4335 23.9053 22.4301 23.9053 22.4267 23.9053C22.3222 23.8884 22.1402 23.8209 21.8773 23.7366C21.8031 23.7164 21.739 23.6927 21.6716 23.6691C21.5233 23.6219 21.3716 23.5679 21.2233 23.5139L21.2165 23.5106C21.1794 23.4971 21.1053 23.4701 21.0176 23.4397L20.9974 23.4296C20.9907 23.4262 20.9907 23.4262 20.9839 23.4262C20.8423 23.3689 20.694 23.3048 20.5389 23.2373C20.5389 23.2373 20.5389 23.2373 20.5356 23.2373C20.4917 23.2171 20.4479 23.1968 20.3973 23.18C20.1951 23.0855 20.0029 22.9978 19.8243 22.9067C19.8141 22.9033 19.804 22.9 19.7939 22.8966C19.7063 22.846 19.6085 22.7954 19.504 22.7448L19.4939 22.738C19.4871 22.7347 19.4838 22.7313 19.477 22.7279C19.4366 22.7077 19.3928 22.6841 19.3928 22.6841C19.3725 22.6706 19.3523 22.6604 19.3354 22.6503C19.2107 22.5862 19.0826 22.512 18.9612 22.4378C18.9377 22.4243 18.9174 22.4142 18.8938 22.4007C18.8938 22.4007 18.8736 22.3906 18.8635 22.3872C18.7152 22.2961 18.5736 22.2084 18.4286 22.1139C18.4252 22.1105 18.4219 22.1072 18.4185 22.1038C18.405 22.0971 18.3612 22.0667 18.287 22.0195C18.1792 21.9486 18.0915 21.8913 18.0241 21.844C18.0039 21.8272 17.9803 21.8137 17.9567 21.7968C17.9567 21.7968 17.9533 21.7968 17.9499 21.7934C17.7544 21.6517 17.5622 21.5101 17.3802 21.365C17.3701 21.3582 17.36 21.3515 17.3532 21.3447C17.3499 21.3414 17.2993 21.3009 17.2352 21.2503C17.0431 21.0985 16.861 20.9467 16.6824 20.7881C16.679 20.7847 16.679 20.7847 16.6756 20.7814C16.6689 20.7746 16.6588 20.7679 16.652 20.7611C16.6487 20.7577 16.6419 20.7544 16.6386 20.751C16.6318 20.7443 16.6284 20.7409 16.6251 20.7375C16.4565 20.5857 16.2913 20.4305 16.1261 20.2686L16.116 20.2585C16.0722 20.2146 16.0318 20.1741 15.9947 20.1336C15.9913 20.1336 15.9913 20.1303 15.9879 20.1303C15.8093 19.9515 15.6474 19.7828 15.5059 19.6175C15.4789 19.5871 15.4519 19.5601 15.4216 19.5365C15.0912 19.2464 14.7238 18.6999 14.3631 18.1736C14.3597 18.1702 14.3597 18.1702 14.3597 18.1669C13.9956 17.6473 13.672 17.0974 13.3888 16.5273C13.3888 16.5239 13.3888 16.5239 13.3888 16.5206C11.9426 13.6632 11.7504 10.2053 13.0079 7.31412ZM3.71373 9.56766C3.52157 11.0756 3.45415 12.6747 3.60248 14.3311C3.93959 18.0657 5.07565 21.9048 6.98707 24.5361C7.11855 24.7251 7.25339 24.9039 7.39161 25.086C7.44217 25.1535 7.47588 25.194 7.486 25.2075C7.49948 25.2277 7.51297 25.248 7.52982 25.2648C7.6377 25.3998 7.74894 25.5381 7.86356 25.6831C7.87367 25.6933 7.88042 25.7 7.89053 25.7101C7.91076 25.7337 7.94784 25.7844 8.00852 25.8552C8.16359 26.0374 8.3254 26.2263 8.49396 26.4118C8.5007 26.4186 8.50744 26.4287 8.51418 26.4354C8.67263 26.6109 8.83781 26.7863 9.00637 26.9583C9.05019 27.0022 9.09739 27.0528 9.1547 27.1102C9.15807 27.1135 9.15807 27.1135 9.15807 27.1135L9.16144 27.1169C9.29628 27.2518 9.42101 27.3767 9.539 27.4914C9.54574 27.4981 9.55586 27.5082 9.5626 27.515C9.58957 27.5386 9.63002 27.5825 9.70081 27.6499C9.70419 27.6533 9.70756 27.6533 9.71093 27.6567C9.88285 27.8186 10.0615 27.9873 10.2469 28.1492C10.2604 28.1661 10.2773 28.1796 10.2941 28.1931C10.3649 28.247 10.3481 28.2538 10.2402 28.1357C10.2638 28.1593 10.2874 28.1829 10.311 28.2032C10.4795 28.355 10.6515 28.5034 10.8402 28.6552C10.9077 28.7092 10.9616 28.7531 11.0021 28.7868C11.0054 28.7902 11.0122 28.7969 11.0155 28.8003C11.1605 28.9184 11.2987 29.023 11.4268 29.1242C11.4369 29.1343 11.447 29.141 11.4538 29.1478C11.5111 29.1849 11.565 29.2288 11.6257 29.2726C11.6325 29.2827 11.6392 29.2895 11.6493 29.2962C11.801 29.4042 11.9493 29.5155 12.1112 29.6302C12.1449 29.6538 12.1954 29.6943 12.2595 29.7415C12.2629 29.7415 12.2662 29.7449 12.273 29.7449C12.428 29.8529 12.5932 29.9676 12.7719 30.0789C12.8191 30.1126 12.873 30.1531 12.9438 30.197C12.9472 30.2003 12.9506 30.2003 12.9506 30.2003C13.1798 30.3488 13.409 30.4905 13.6315 30.622C13.6383 30.6254 13.645 30.6322 13.6551 30.6355C13.7293 30.676 13.763 30.6962 13.7563 30.6929C13.7765 30.7064 13.8001 30.7232 13.8237 30.7367C13.9855 30.8244 14.154 30.9223 14.3327 31.0201L14.3361 31.0235C14.3395 31.0235 14.3428 31.0269 14.3496 31.0269C14.4608 31.091 14.562 31.1416 14.6462 31.1854C14.7777 31.2563 14.9193 31.3305 15.0676 31.4013C15.071 31.4047 15.0811 31.4081 15.0811 31.4114C15.0878 31.4114 15.0878 31.4114 15.0912 31.4148C15.1418 31.4384 15.1991 31.4722 15.2901 31.5093C15.4587 31.5936 15.6306 31.6746 15.8093 31.7555C15.8227 31.7623 15.8362 31.769 15.8497 31.7758C15.8531 31.7758 15.9104 31.7994 15.9542 31.8196C16.17 31.9141 16.3992 32.0119 16.6386 32.1064C16.6386 32.1098 16.6419 32.1098 16.6419 32.1098C16.7195 32.1401 16.7667 32.157 16.7768 32.1604C16.7903 32.1671 16.8004 32.1705 16.8139 32.1739C17.0127 32.2548 17.2218 32.3358 17.4442 32.4134C17.4813 32.4269 17.5218 32.4404 17.5589 32.4539C17.7712 32.5281 17.9904 32.5989 18.2162 32.6698C18.3039 32.7001 18.3814 32.7204 18.4488 32.7406C18.6713 32.8081 18.9174 32.8891 19.2006 32.9532C23.7684 34.0057 28.5487 33.7392 32.4322 31.7623C30.187 34.0125 26.5058 36.2727 20.7412 36.2727C19.4096 36.2727 17.9668 36.1445 16.3992 35.8544C16.2441 35.8241 16.0452 35.7566 15.7789 35.6756C15.7654 35.6689 15.752 35.6655 15.7385 35.6621C15.7351 35.6621 15.6812 35.6453 15.6171 35.625L15.5901 35.6183C15.3744 35.5508 15.162 35.48 14.9463 35.4057C14.9395 35.4024 14.9361 35.4024 14.9294 35.399C14.9058 35.3922 14.9125 35.3956 14.9193 35.3956C14.9092 35.3922 14.8957 35.3855 14.8856 35.3821C14.6799 35.3079 14.4743 35.2303 14.2822 35.1561C14.2687 35.1493 14.2518 35.146 14.235 35.1392C14.2417 35.1426 14.1945 35.1224 14.1237 35.0954L14.1102 35.0886C13.9012 35.0043 13.6989 34.9199 13.4933 34.8289C13.4529 34.812 13.3989 34.785 13.3922 34.785C13.3888 34.7816 13.3854 34.7783 13.3821 34.7783C13.1933 34.6939 13.018 34.6129 12.8494 34.5286H12.8427C12.8292 34.5185 12.7786 34.4949 12.7449 34.478C12.6674 34.4342 12.6573 34.4342 12.6303 34.424L12.6168 34.4207C12.5089 34.3633 12.4011 34.306 12.2966 34.2486C12.2865 34.2419 12.2763 34.2351 12.2662 34.2317C12.1651 34.1811 12.0876 34.1407 12.0269 34.1069C12.0235 34.1035 12.0168 34.1002 12.0134 34.1002C11.8583 34.0158 11.7033 33.9281 11.5482 33.837L11.5414 33.8337C11.474 33.7932 11.41 33.7561 11.3425 33.7223L11.3257 33.7088C11.1234 33.5874 10.9245 33.4626 10.7256 33.3344C10.6683 33.2939 10.611 33.2602 10.5537 33.223L10.5503 33.2197C10.5503 33.2197 10.5503 33.2197 10.547 33.2197C10.4155 33.1286 10.2874 33.0409 10.1492 32.9498C10.1289 32.9329 10.1053 32.916 10.0818 32.8992C10.048 32.8789 10.0076 32.8486 9.96039 32.8148C9.95702 32.8115 9.95365 32.8081 9.95028 32.8047C9.80869 32.7069 9.67047 32.6057 9.539 32.5078L9.53563 32.5045H9.53226C9.46821 32.4539 9.40416 32.4033 9.33336 32.3493L9.32999 32.3459C9.19515 32.2447 9.07042 32.1503 8.9558 32.0558L8.95243 32.0524C8.88501 31.9984 8.8277 31.9546 8.7805 31.9141C8.7805 31.9107 8.77713 31.9107 8.77713 31.9107C8.62206 31.7792 8.47036 31.6476 8.31866 31.5194C8.29843 31.4992 8.28158 31.4857 8.26809 31.4789C8.25461 31.462 8.23775 31.4486 8.22427 31.4351C8.0692 31.3035 7.91076 31.1517 7.74557 30.9965L7.7422 30.9897C7.68489 30.9358 7.63433 30.8919 7.5905 30.8481C7.58713 30.8447 7.58376 30.8413 7.58039 30.8379C7.47251 30.7367 7.36127 30.6187 7.23654 30.4938C7.22979 30.4871 7.22305 30.4803 7.21631 30.4702C7.16911 30.4264 7.12866 30.3893 7.08821 30.3488C6.93651 30.1868 6.78818 30.0283 6.63985 29.8664C6.63648 29.863 6.63311 29.8596 6.63311 29.8596C6.62636 29.8495 6.61962 29.8427 6.60951 29.836C6.46118 29.6673 6.31622 29.502 6.17801 29.3333C6.17126 29.3266 6.16452 29.3198 6.15778 29.3097C6.13081 29.2794 6.09373 29.2355 6.05328 29.1883L6.04991 29.1849C6.04991 29.1815 6.04653 29.1781 6.04316 29.1748C5.93866 29.0432 5.82741 28.9049 5.71279 28.7666C5.67234 28.7126 5.63526 28.662 5.6184 28.635C5.60829 28.6249 5.60155 28.6148 5.5948 28.608C5.48356 28.463 5.37231 28.3179 5.26107 28.1627L5.25432 28.1526C5.22398 28.1087 5.20376 28.0851 5.21387 28.0986C5.20713 28.0885 5.20039 28.0784 5.19364 28.0682C5.1869 28.0581 5.18016 28.0514 5.17342 28.0413C5.17005 28.0379 5.16667 28.0311 5.1633 28.0278C5.1633 28.0278 5.1633 28.0278 5.15993 28.0278C5.04531 27.8658 4.9307 27.6938 4.80934 27.5116C4.80597 27.5015 4.79922 27.4914 4.78911 27.4812C4.76888 27.4509 4.74191 27.407 4.7082 27.3531L4.69809 27.3396C4.59696 27.1743 4.50594 27.0393 4.44526 26.9347C4.43852 26.9212 4.4284 26.9044 4.41829 26.8909C4.39132 26.8504 4.35761 26.7897 4.30704 26.7087L4.30367 26.702C4.23288 26.5839 4.15871 26.4591 4.08118 26.3275V26.3207C4.07444 26.314 4.07444 26.3106 4.06769 26.3039C4.03398 26.2364 4.00364 26.1791 3.98004 26.1318C3.96993 26.1116 3.95982 26.0947 3.94633 26.0745C3.90925 26.007 3.89577 25.9766 3.92611 26.0407C3.91262 26.0104 3.89914 25.9834 3.88565 25.9598C3.85531 25.9058 3.82497 25.8552 3.80475 25.8012C3.798 25.7877 3.79126 25.7742 3.78452 25.7607C3.7171 25.6325 3.66316 25.5313 3.62271 25.4504C3.61934 25.4402 3.61596 25.4301 3.61259 25.4234C1.36406 20.8859 1.04718 13.8926 3.71373 9.56766ZM16.6992 20.8185L16.7093 20.8218C16.7228 20.8421 16.7195 20.8353 16.7363 20.8623C16.7262 20.8455 16.7127 20.832 16.6992 20.8185ZM6.64659 29.8866C6.64659 29.8866 6.6567 29.8967 6.66008 29.9001C6.67019 29.9102 6.66682 29.9068 6.67693 29.9203L6.6803 29.9237V29.9271C6.68704 29.9305 6.69042 29.9406 6.69379 29.9473C6.66682 29.9102 6.6567 29.8967 6.64659 29.8866ZM10.166 32.9667L10.1964 32.9835C10.1357 32.9397 10.1391 32.9363 10.1964 32.9903C10.1863 32.9801 10.1761 32.9734 10.166 32.9667Z" fill="white"/>
</svg>
