<svg width="38" height="38" viewBox="0 0 38 38" fill="none" xmlns="http://www.w3.org/2000/svg">
<path d="M36.2706 4.32779H22.4312V0.44397H19.9844L0 3.90489V34.1037L19.7471 37.556H22.4312V33.2407H35.3816C36.1195 33.2061 36.9394 33.2795 37.5695 32.8221C38.0701 32.0496 37.9488 31.083 37.9919 30.2113V6.01941C38.0912 5.02688 37.2631 4.23285 36.2706 4.32779ZM12.6569 20.4327C11.6773 20.9333 10.5554 20.8642 9.48946 20.8297L9.48515 25.8916L6.91751 25.6758L6.92183 11.8451C9.26506 11.9573 12.1046 10.9173 14.0465 12.6737C15.9064 14.9306 15.4144 19.082 12.6569 20.4327ZM35.9298 31.204H22.4312V28.4938H32.7881V26.7676H22.4312V24.61H32.7881V22.8838H22.4355C22.4355 22.8838 22.4312 21.1922 22.4269 20.3464C24.1358 20.8772 26.082 20.8642 27.6096 19.8372C29.2624 18.8576 30.1255 16.989 30.2679 15.1248L24.5889 15.1248V9.48895L22.4312 9.92481V6.36443H35.9298V31.204ZM25.4516 8.58705C28.4508 8.72514 30.9756 11.2605 31.1353 14.251H25.4516V8.58705ZM9.48515 14.1797C10.3353 14.1409 11.3882 13.9856 11.9622 14.7839C12.4541 15.6297 12.4282 16.7431 12.0183 17.6148C11.5263 18.5037 10.413 18.4174 9.55419 18.521C9.46357 17.0753 9.4722 15.6297 9.48515 14.1797Z" fill="white"/>
</svg>
