<svg width="40" height="39" viewBox="0 0 40 39" fill="none" xmlns="http://www.w3.org/2000/svg">
<path d="M40 19.9591C40 28.9007 34.12 36.4652 26 39V33.9304C26 32.2239 25.28 30.697 24.14 29.5993C29.38 28.6512 32 25.6075 32 19.9591C32 17.5141 31.5 15.578 30.52 14.0711C30.96 12.3646 31.22 9.93961 30 7.98362C27.64 7.98362 25.99 9.37078 25.02 10.5084C23.57 10.1592 21.9 9.97953 20 9.97953C18.2 9.97953 16.54 10.1791 15.06 10.5883C14.1 9.44063 12.42 7.98362 10 7.98362C8.58 10.259 9.16 12.7139 9.7 14.0911C8.62 15.598 8 17.534 8 19.9591C8 25.6075 10.62 28.6512 15.86 29.5993C15.19 30.248 14.67 31.0363 14.35 31.9345H12C10.56 31.9345 10 31.2958 9.23 30.2579C8.46 29.2201 7.63 28.5215 6.64 28.2321C6.11 28.1722 5.75 28.6013 6.22 28.9806C7.79 30.1082 7.9 31.9545 8.53 33.162C9.1 34.2497 10.28 34.9284 11.61 34.9284H14V39C5.88 36.4652 0 28.9007 0 19.9591C0 8.93168 8.95 0 20 0C31.05 0 40 8.93168 40 19.9591Z" fill="white"/>
</svg>
