<svg width="46" height="35" viewBox="0 0 46 35" fill="none" xmlns="http://www.w3.org/2000/svg">
<path d="M21.0191 0C18.9649 0 16.7966 0.380161 14.747 1.10032C12.2926 1.96268 7.65214 3.89355 4.14762 7.13425C0.589626 10.4251 -0.288131 13.5909 0.0760583 15.4578C0.75926 18.9565 4.16086 21.3516 6.74615 23.1137C4.85789 24.2569 2.80639 25.8313 1.98488 27.6272C1.20948 29.3209 1.16812 31.0654 1.86423 32.5394C2.38424 33.6397 3.27228 34.4561 4.23946 34.7222C4.90883 34.9064 5.60076 35 6.29595 35C9.04166 35 11.7504 33.5185 13.3676 31.1347C13.6101 30.7773 13.819 30.4056 13.9979 30.0254C14.0965 30.1412 14.1989 30.251 14.304 30.3495C15.1864 31.1763 16.2381 31.1756 16.5838 31.1756C17.6496 31.1756 18.3998 30.7189 18.941 30.1518C19.3928 30.449 19.9243 30.6076 20.4969 30.6076C20.566 30.6076 20.6376 30.6069 20.7058 30.5987C21.8518 30.4602 23.0882 29.3542 23.0882 29.3542C23.1362 29.3952 23.1843 29.4334 23.2359 29.4717C23.7227 29.8345 24.3352 30.0112 25.1069 30.0112C25.2351 30.0112 25.3676 30.0078 25.5013 29.9987C26.4445 29.9358 27.1556 29.7129 27.6028 29.5269C28.0527 29.3646 28.704 29.0778 29.3549 28.6046C29.5126 28.4898 29.6632 28.369 29.8033 28.2414C30.0901 28.4137 30.4137 28.538 30.7649 28.6082C30.9364 28.6428 31.1154 28.6598 31.2998 28.6598C31.7847 28.6598 32.3096 28.5426 32.9025 28.302C33.3838 28.1379 34.0783 27.8437 34.7717 27.3405C36.3778 26.1728 37.1593 24.7849 37.0929 23.2188C37.091 23.1705 37.0876 23.122 37.0839 23.0728C37.3208 23.0473 37.566 23.0354 37.8186 23.0354C38.1312 23.0354 38.4608 23.0559 38.7964 23.0942C40.9954 23.3485 41.4681 24.3743 41.4598 24.7144C41.4459 24.8037 41.2894 24.9473 41.1428 25.0366C40.2125 25.6055 39.8253 26.344 39.9903 27.2319C40.1664 28.1927 40.9827 28.8664 41.9748 28.8664C42.1638 28.8664 42.329 28.8429 42.4664 28.8201C43.6456 28.6232 45.8927 27.1763 45.9959 24.5755C46.0568 23.0659 45.4313 21.5213 44.2816 20.338C42.8368 18.8521 40.7183 18.0341 38.3156 18.0341H38.2598C37.2677 18.0396 36.3042 18.174 35.3785 18.4347L35.3497 18.2282C35.2935 17.8371 35.2721 17.6905 35.3173 17.3504C35.3579 17.0451 35.5466 16.4932 35.6379 16.227C35.766 15.8551 35.8592 15.5864 35.8269 15.189C35.7642 14.4132 35.1122 13.0955 33.0681 13.0809H33.0609H33.0105C31.1942 13.0809 30.0719 13.6025 29.6755 14.6317C29.6257 14.7602 29.5671 14.9298 29.5062 15.1249C29.0821 14.6837 28.4007 14.3363 27.3561 14.329H27.3489H27.2966C27.08 14.329 26.8736 14.3376 26.6772 14.3522C29.2975 11.952 30.9677 8.50515 30.1167 5.20246C29.2896 1.99367 25.8034 0 21.0191 0ZM21.0173 1.81427C24.6961 1.81427 27.7021 3.17431 28.3411 5.65291C29.276 9.27739 26.092 13.6124 22.0168 15.1712C19.8989 15.9816 17.994 16.2448 16.528 16.2448C15.476 16.2448 14.6493 16.1081 14.1329 15.9403C12.7278 15.4845 11.9029 14.5699 11.7019 14.0531C11.6235 13.8507 11.4871 13.5101 11.7019 13.3925C11.7388 13.3725 11.7705 13.3587 11.8027 13.3587C11.8876 13.3587 11.9868 13.4448 12.2403 13.7219C12.5344 14.0428 13.6074 14.8365 15.5934 14.8365C15.8727 14.8365 16.1721 14.8222 16.4884 14.7866C23.2143 14.0409 27.2654 8.87303 25.9857 6.09268C25.5155 5.07171 23.8656 4.34607 21.4675 4.34607C19.2944 4.34607 16.5065 4.94344 13.427 6.46124C5.51997 10.3565 5.09191 13.5669 5.0246 14.7866C4.83928 18.1412 9.21179 19.9074 11.5776 22.4033C11.609 22.4362 11.6391 22.4685 11.6695 22.5013C12.113 22.2597 12.5798 22.0059 13.0381 21.757C14.2311 21.1089 15.3542 20.5013 15.8797 20.2187C16.7123 19.0227 18.4037 17.703 19.6235 17.703C21.5745 17.703 20.9021 20.4733 20.9021 20.4733C20.9021 20.4733 20.9422 20.3443 20.9957 20.3434C21.0381 20.3425 21.1751 20.1279 21.5107 20.1279C21.6112 20.1279 21.7281 20.1472 21.8673 20.1974C22.4869 20.4216 22.3462 20.8516 22.3499 20.8953C22.3573 20.9801 21.6188 23.4435 21.3109 25.0224C21.1643 25.7754 21.2495 26.3239 21.2928 26.3239C21.3537 26.3239 21.4765 26.1311 21.5918 25.9251L21.59 25.9197C21.59 25.9197 21.6757 25.7652 21.8205 25.4853C21.8389 25.4479 21.8493 25.4248 21.8493 25.4248L21.8511 25.4265C22.0207 25.0965 22.2597 24.6136 22.5354 24.0129C23.0766 22.8333 25.1424 18.2819 25.3176 17.7777C25.4928 17.2736 25.5848 16.7521 25.6705 16.5297C25.7554 16.3109 26.4604 16.1451 27.2948 16.1451H27.3399C28.1936 16.1515 28.2788 16.5101 28.2853 16.5849C28.2917 16.6596 27.8787 17.6579 27.7847 18.3635C27.6906 19.0691 27.781 19.4232 27.8585 20.0158C27.9101 20.4041 28.1552 20.8956 28.4437 21.4526C29.3261 20.025 30.8812 17.2945 31.0315 16.5297C31.1338 16.0073 31.2987 15.5058 31.3844 15.2833C31.4692 15.0646 32.1752 14.897 33.0087 14.897H33.0519C33.9057 14.9034 33.9927 15.2638 33.9991 15.3385C34.0056 15.4133 33.5926 16.4116 33.4985 17.1172C33.4045 17.8228 33.4949 18.1751 33.5724 18.7677C33.6387 19.2745 34.0368 19.9584 34.4295 20.7333C35.5037 20.21 36.7854 19.8575 38.2652 19.8502H38.312C42.1097 19.8502 44.2513 22.2881 44.1627 24.5078C44.0964 26.2599 42.4663 26.9832 42.1639 27.0343C42.0901 27.047 42.0264 27.0557 41.9748 27.0557C41.8725 27.0557 41.8141 27.0191 41.7929 26.9061C41.7708 26.7885 41.8499 26.7344 42.1081 26.5767C42.3662 26.419 43.1376 25.8957 43.275 24.944C43.4133 23.9923 42.6905 21.7198 39.0089 21.2941C38.5903 21.2458 38.1948 21.2247 37.8186 21.2247C36.6541 21.2247 35.6914 21.4396 34.9049 21.7642C35.0986 22.2592 35.2412 22.774 35.2633 23.2936C35.3112 24.4349 34.5138 25.278 33.6858 25.8806C33.2036 26.2315 32.6856 26.4657 32.256 26.607C31.9683 26.7273 31.6022 26.8491 31.2998 26.8491C31.2389 26.8491 31.1813 26.844 31.1269 26.8331C30.4087 26.69 30.026 26.06 30.5146 24.6699C30.7792 23.9178 31.5402 22.7719 32.7674 21.7855C32.4871 21.2158 32.1751 20.6354 32.0165 20.103C31.7039 19.0519 31.6077 18.4169 31.6077 18.4169C31.6077 18.4169 30.5939 20.4905 29.2883 22.3784C29.2127 22.4878 29.1379 22.594 29.0632 22.7007C29.3195 23.2887 29.5227 23.9127 29.5494 24.5417C29.5974 25.6821 29.097 26.5439 28.2691 27.1465C27.8201 27.4728 27.3423 27.6986 26.9311 27.8426C26.6674 27.9556 26.134 28.1405 25.3752 28.1916C25.2839 28.198 25.1936 28.2023 25.1051 28.2023C24.7925 28.2023 24.5113 28.1581 24.3362 28.0278C24.0291 27.7999 23.9921 27.5152 24.1507 27.1286C24.2853 26.8005 25.2906 25.6644 26.1351 24.6699C26.3675 24.3955 26.5906 24.116 26.7888 23.8562C26.7861 23.8498 26.7852 23.8455 26.7852 23.8455C26.7852 23.8455 26.9379 23.6505 27.1868 23.3096C26.8788 22.6542 26.487 21.9692 26.3026 21.3511C25.9901 20.3 25.8956 19.6632 25.8956 19.6632C25.8956 19.6632 24.869 22.2648 23.7995 24.3405C22.9716 25.9476 22.4188 26.9219 22.1698 27.3494C22.168 27.3604 22.1662 27.3654 22.1662 27.3654C22.1662 27.3654 22.1299 27.4281 22.0654 27.5257C22.034 27.5786 22.0186 27.6058 22.0186 27.6058C22.0186 27.6058 22.0177 27.6023 22.0168 27.5987C21.7392 28.0034 21.1156 28.7969 20.4969 28.7969C18.7967 28.7969 19.4218 25.3856 19.4218 25.3856C19.4218 25.3856 18.9254 26.6492 18.3648 27.734C17.9084 28.6182 17.4929 29.3667 16.5838 29.3667C16.321 29.3667 15.9076 29.3582 15.5628 29.0355C14.7818 28.3026 14.1851 26.4413 14.3022 25.001C14.4018 23.7749 14.5923 22.9265 14.8533 22.2182C14.3858 22.4698 13.8478 22.7671 13.2992 23.0853C13.018 23.2484 12.7349 23.4144 12.4564 23.5767C12.4656 23.5931 12.4751 23.6101 12.4834 23.6265C13.1823 24.9611 13.3664 27.8826 11.8442 30.1269C10.6096 31.9474 8.51525 33.1911 6.29415 33.1911C5.77599 33.1911 5.25112 33.1232 4.72927 32.9792C3.83862 32.734 2.49161 30.9128 3.65241 28.375C4.67583 26.1379 8.76747 24.0199 9.84529 23.493C9.93564 23.4438 10.0364 23.3902 10.1424 23.3327C7.99324 21.474 2.62379 18.9674 1.87144 15.116C1.65938 14.0321 2.17317 11.4371 5.39556 8.45712C8.10532 5.95116 11.876 4.03289 15.3575 2.80954C17.2743 2.13588 19.225 1.81427 21.0173 1.81427ZM21.4711 6.15322C23.435 6.15322 24.2358 6.71702 24.329 6.8565C24.458 7.13909 24.4289 7.76998 23.931 8.63872C22.8642 10.4984 20.0862 12.5636 16.2867 12.9848C16.0497 13.0112 15.8183 13.024 15.597 13.024C14.1762 13.024 13.5856 12.4882 13.5801 12.4827C13.25 12.1217 12.721 11.5453 11.8063 11.5444C11.4652 11.5444 11.133 11.6329 10.8177 11.8061C10.5494 11.9529 9.24894 12.7816 9.99115 14.6905C10.3941 15.726 11.6526 17.0404 13.5639 17.6602C14.0747 17.8261 14.7003 17.9419 15.3881 18.0039C15.1096 18.2773 14.8627 18.5532 14.6534 18.8157C14.0587 19.1366 13.132 19.6384 12.1593 20.1671L11.9756 20.265C11.3809 19.7472 10.7467 19.2666 10.1262 18.7944C8.10519 17.2574 6.78592 16.1544 6.85599 14.8827C7.00444 12.1954 10.9567 9.69869 14.2464 8.07788C16.7653 6.83721 19.3312 6.15322 21.4711 6.15322ZM23.8175 16.3498C23.8019 16.4091 23.7882 16.4703 23.7725 16.5332C23.72 16.7429 23.6608 16.9788 23.5888 17.1849C23.528 17.3489 23.2726 17.9327 22.9352 18.6911C22.8835 18.6619 22.8311 18.6347 22.7767 18.6092C22.6845 18.0787 22.4908 17.5333 22.1266 17.0602C22.3092 16.9964 22.4923 16.9284 22.6794 16.8573C23.063 16.7105 23.4432 16.5413 23.8175 16.3498ZM19.5821 19.3392C19.2649 19.3392 18.7506 19.6125 18.2711 20.1422C17.8581 20.5998 17.1543 21.7784 16.8251 22.7648C16.1705 24.7247 16.4523 26.7163 16.9169 26.8367C16.9308 26.8403 16.9463 26.842 16.9602 26.842C17.5041 26.842 18.3587 24.33 18.7718 23.3327C19.0382 22.691 20.0736 19.844 19.8468 19.4638C19.797 19.3809 19.7047 19.3392 19.5821 19.3392ZM33.3545 22.5671C32.6667 23.1679 32.2709 23.7976 32.0975 24.1713C31.6559 25.123 31.6343 25.4279 31.768 25.5227C32.4106 25.2948 33.4713 24.7444 33.4805 23.2722C33.4824 23.0516 33.4347 22.8142 33.3545 22.5671ZM11.1509 24.1891C11.0845 24.2274 11.0226 24.2648 10.9618 24.3013V24.3031C10.9618 24.3031 10.9333 24.3193 10.8807 24.3494C10.5636 24.5372 10.3014 24.6923 10.1244 24.798C9.34348 25.2803 8.16582 26.0645 7.25397 26.915C5.75756 28.3106 5.44369 30.2481 6.23292 30.7002C6.40165 30.7969 6.62401 30.8444 6.8794 30.8444C7.72764 30.8444 8.94903 30.3171 9.88671 29.3061C11.1664 27.9251 11.6948 26.1755 11.1509 24.1891ZM27.7648 24.417C27.4993 24.7616 27.2547 25.0679 27.0445 25.3268C26.6831 25.7717 25.7642 26.7476 25.7642 26.7476C25.7642 26.7476 25.6341 26.8697 25.6903 26.9025C25.7088 26.9135 25.732 26.9186 25.7588 26.9186C25.8464 26.9186 25.9752 26.8668 26.1135 26.7957C26.6234 26.4785 27.7657 25.689 27.7684 24.5185C27.7684 24.4848 27.7676 24.4517 27.7648 24.417Z" fill="white"/>
</svg>
